<svg xmlns="http://www.w3.org/2000/svg" viewBox="0 0 100 100" id="card-curly">
  <path d="M77.8041992,89.5783691H22.1958008c-.7949219,0-1.4404297-.6445312-1.4404297-1.4399414V11.8615723c0-.7954102,.6455078-1.4399414,1.4404297-1.4399414h55.6083984c.7949219,0,1.4404297,.6445312,1.4404297,1.4399414V88.1384277c0,.7954102-.6455078,1.4399414-1.4404297,1.4399414Zm-54.1679688-2.8798828h52.7275391V13.3015137H23.6362305V86.6984863Zm33.4697266-5.6835938h-16.5712891c-.7949219,0-1.4404297-.6445312-1.4404297-1.4399414s.6455078-1.4399414,1.4404297-1.4399414h7.0029297v-3.6552734c-2.0634766,1.8613281-4.7607422,2.9267578-7.6689453,2.9267578-6.3701172,0-11.5527344-5.1748047-11.5527344-11.5351562,0-5.7226562,4.1962891-10.4848633,9.6767578-11.3828125-.390625-1.1577148-.5878906-2.3505859-.5878906-3.5654297,0-6.3603516,5.1748047-11.534668,11.5351562-11.534668,6.3701172,0,11.5527344,5.1743164,11.5527344,11.534668,0,1.2124023-.1962891,2.4023438-.5849609,3.5576172,5.5058594,.8764648,9.7275391,5.6508789,9.7275391,11.390625,0,6.3603516-5.1835938,11.5351562-11.5537109,11.5351562-2.9052734,0-5.6005859-1.0634766-7.6630859-2.921875v3.6503906h6.6875c.7949219,0,1.4404297,.6445312,1.4404297,1.4399414s-.6455078,1.4399414-1.4404297,1.4399414Zm-8.1308594-12.2949219c.5576172,0,1.0644531,.3217773,1.3027344,.8256836,1.4482422,3.0722656,4.4384766,4.980957,7.8037109,4.980957,4.7822266,0,8.6728516-3.8828125,8.6728516-8.6552734s-3.890625-8.6547852-8.6728516-8.6547852c-.0693359,.0175781-.1757812,.0307617-.2861328,.0341797-.4785156,.0239258-1.0068359-.2451172-1.2773438-.6884766-.2714844-.4428711-.2822266-.9975586-.0292969-1.4511719,.7451172-1.3383789,1.1230469-2.7475586,1.1230469-4.1879883,0-4.7724609-3.8896484-8.6547852-8.671875-8.6547852-4.7724609,0-8.6542969,3.8823242-8.6542969,8.6547852,0,1.4404297,.3779297,2.8496094,1.1230469,4.1879883,.2519531,.4516602,.2421875,1.003418-.0253906,1.4458008-.2685547,.4423828-.7509766,.7089844-1.2685547,.6943359-.1103516-.0029297-.2177734-.0161133-.3232422-.0341797-4.7470703,.0419922-8.5947266,3.9082031-8.5947266,8.6542969,0,4.7724609,3.8896484,8.6552734,8.671875,8.6552734,3.3662109,0,6.3564453-1.9086914,7.8037109-4.9804688,.2382812-.5043945,.7451172-.8261719,1.3027344-.8261719Zm-18.6162109-30.887207c-.28125,0-.5605469-.0820312-.8017578-.2441406-.4345703-.2910156-.6767578-.7949219-.6328125-1.315918l.4814453-5.7573242-4.0908203-4.0795898c-.3701172-.3691406-.5117188-.9101562-.3681641-1.4130859,.1425781-.5029297,.546875-.8886719,1.0556641-1.0083008l5.6240234-1.3203125,2.6152344-5.1513672c.2363281-.4663086,.7080078-.7675781,1.2304688-.7871094,.5273438-.0146484,1.0146484,.2460938,1.2851562,.6928711l2.9941406,4.940918,5.7070312,.8955078c.5166016,.0805664,.9492188,.4355469,1.1289062,.9262695,.1806641,.4912109,.0800781,1.0410156-.2617188,1.4370117l-3.7744141,4.3735352,.9130859,5.7050781c.0830078,.5166016-.1210938,1.0371094-.5322266,1.3598633-.4111328,.3232422-.9638672,.3969727-1.4472656,.1953125l-5.3261719-2.237793-5.1445312,2.6308594c-.2060547,.1054688-.4306641,.1577148-.6552734,.1577148Zm-1.1757812-11.6064453l2.7304688,2.7226562c.3007812,.2998047,.4541016,.7167969,.4179688,1.1396484l-.3212891,3.8422852,3.4335938-1.7558594c.3779297-.1928711,.8222656-.2094727,1.2128906-.0454102l3.5546875,1.4931641-.609375-3.8071289c-.0673828-.4194336,.0546875-.8466797,.3320312-1.168457l2.5185547-2.9189453-3.8095703-.597168c-.4189453-.065918-.7880859-.3134766-1.0078125-.6767578l-1.9980469-3.2973633-1.7451172,3.4379883c-.1923828,.378418-.5419922,.652832-.9550781,.75l-3.7539062,.8813477Z"></path>
</svg>
