<svg xmlns="http://www.w3.org/2000/svg" width="96" height="96" fill="none" viewBox="0 0 96 96" id="dollar-note">
  <path fill="#80A17D" d="M7.15368 45.3802C6.58192 43.2464 7.84825 41.053 9.98211 40.4813L75.6651 22.8816C77.7989 22.3098 79.9923 23.5761 80.564 25.71L88.8463 56.6196C89.418 58.7535 88.1517 60.9468 86.0178 61.5186L20.3349 79.1183C18.201 79.6901 16.0077 78.4237 15.4359 76.2899L7.15368 45.3802Z"></path>
  <path fill="#446548" fill-rule="evenodd" d="M9.4645 38.5494L75.1475 20.9497C78.3483 20.0921 81.6383 21.9916 82.4959 25.1924L90.7781 56.102C91.6358 59.3028 89.7363 62.5928 86.5355 63.4505L20.8525 81.0502C17.6517 81.9078 14.3617 80.0083 13.5041 76.8075L5.22186 45.8979C4.36421 42.6971 6.2637 39.4071 9.4645 38.5494ZM9.98214 40.4813C7.84827 41.0531 6.58194 43.2464 7.15371 45.3803L15.4359 76.2899C16.0077 78.4238 18.201 79.6901 20.3349 79.1183L86.0179 61.5186C88.1517 60.9469 89.418 58.7535 88.8463 56.6197L80.5641 25.71C79.9923 23.5762 77.799 22.3098 75.6651 22.8816L9.98214 40.4813Z" clip-rule="evenodd"></path>
  <path fill="#9DC09A" fill-rule="evenodd" d="M7.15368 45.3802C6.58192 43.2464 7.84825 41.053 9.98211 40.4813L31.2325 34.7872C31.7659 34.6443 32.3143 34.9609 32.4572 35.4944C32.6002 36.0278 32.2836 36.5762 31.7501 36.7191L10.4997 42.4131C9.43282 42.699 8.79965 43.7957 9.08554 44.8626L11.9325 55.4878C12.0755 56.0213 11.7589 56.5696 11.2254 56.7125C10.692 56.8555 10.1436 56.5389 10.0007 56.0054L7.15368 45.3802Z" clip-rule="evenodd"></path>
  <path fill="#6B8E67" d="M18.2271 40.3426L10.4997 42.4131C9.43279 42.699 8.79963 43.7957 9.08551 44.8626L11.0371 52.1461C11.3655 53.3715 12.7359 53.9794 13.777 53.2545 17.0027 51.0085 20.8265 46.9426 20.4879 41.7953 20.4154 40.6932 19.2941 40.0567 18.2271 40.3426zM77.7729 61.6573L85.5003 59.5868C86.5672 59.3009 87.2004 58.2042 86.9145 57.1373L84.9629 49.8538C84.6346 48.6284 83.2641 48.0205 82.223 48.7454 78.9973 50.9915 75.1735 55.0573 75.5121 60.2046 75.5846 61.3068 76.7059 61.9432 77.7729 61.6573zM15.2972 68.0448L17.3677 75.7722C17.6536 76.8392 18.7503 77.4723 19.8172 77.1865L27.1007 75.2349C28.3261 74.9065 28.934 73.5361 28.2091 72.495 25.9631 69.2693 21.8972 65.4454 16.7499 65.784 15.6477 65.8566 15.0113 66.9779 15.2972 68.0448zM80.7028 33.9551L78.6323 26.2277C78.3464 25.1608 77.2497 24.5276 76.1828 24.8135L68.8993 26.7651C67.6739 27.0934 67.066 28.4639 67.7909 29.505 70.0369 32.7307 74.1028 36.5545 79.2501 36.2159 80.3523 36.1434 80.9887 35.022 80.7028 33.9551zM60.5571 47.6353C62.4153 54.5704 58.2998 61.6987 51.3647 63.557 44.4296 65.4152 37.3013 61.2997 35.443 54.3646 33.5848 47.4295 37.7003 40.3012 44.6354 38.4429 51.5705 36.5847 58.6988 40.7002 60.5571 47.6353z"></path>
  <path fill="#446548" fill-rule="evenodd" d="M62.4888 47.1177C64.633 55.1197 59.8842 63.3447 51.8822 65.4889C43.8803 67.633 35.6552 62.8843 33.5111 54.8823C31.3669 46.8803 36.1157 38.6552 44.1177 36.5111C52.1197 34.367 60.3447 39.1157 62.4888 47.1177ZM51.3646 63.557C58.2997 61.6988 62.4152 54.5704 60.557 47.6353C58.6987 40.7003 51.5704 36.5847 44.6353 38.4429C37.7003 40.3012 33.5847 47.4296 35.4429 54.3646C37.3012 61.2997 44.4295 65.4153 51.3646 63.557Z" clip-rule="evenodd"></path>
  <path fill="#80B27B" fill-rule="evenodd" d="M45.153 40.3748C39.2849 41.9471 35.8025 47.9788 37.3749 53.847C37.5178 54.3804 37.2012 54.9288 36.6678 55.0717C36.1343 55.2146 35.586 54.8981 35.443 54.3646C33.5848 47.4295 37.7003 40.3012 44.6354 38.4429C45.1689 38.3 45.7172 38.6165 45.8601 39.15C46.0031 39.6835 45.6865 40.2318 45.153 40.3748Z" clip-rule="evenodd"></path>
  <path fill="#446548" fill-rule="evenodd" d="M42.8636 45.5273C43.7323 44.5955 44.9497 44.0528 46.0589 43.7556C47.1419 43.4654 48.0994 43.3533 49.0159 43.4626C49.9454 43.5735 50.7212 43.8988 51.4491 44.3191C52.1665 44.7333 52.4124 45.6507 51.9981 46.3681C51.5839 47.0856 50.6665 47.3314 49.9491 46.9172C49.4523 46.6303 49.0681 46.4901 48.6607 46.4415C48.2404 46.3914 47.6843 46.426 46.8354 46.6534C46.0128 46.8738 45.3954 47.2111 45.0579 47.5731C44.7938 47.8563 44.6566 48.1813 44.8088 48.7493C44.961 49.3174 45.2423 49.5303 45.6126 49.6435C46.0859 49.7883 46.7892 49.7716 47.6119 49.5512C48.7211 49.254 50.0467 49.1152 51.2649 49.4878C52.5861 49.8919 53.659 50.8691 54.0891 52.4743C54.5193 54.0796 54.0787 55.4624 53.1366 56.4729C52.2678 57.4047 51.0505 57.9473 49.9412 58.2445C47.6452 58.8598 45.7128 58.4492 44.4761 57.6348C43.7842 57.1791 43.5927 56.2489 44.0483 55.557C44.5039 54.8652 45.4342 54.6736 46.1261 55.1293C46.5655 55.4187 47.5972 55.7668 49.1648 55.3467C49.9874 55.1263 50.6048 54.7891 50.9423 54.4271C51.2064 54.1438 51.3436 53.8189 51.1914 53.2508C51.0391 52.6827 50.7579 52.4699 50.3875 52.3566C49.9143 52.2119 49.2109 52.2285 48.3883 52.449C47.2791 52.7462 45.9535 52.8849 44.7353 52.5124C43.4141 52.1083 42.3412 51.1311 41.911 49.5258C41.4809 47.9205 41.9214 46.5378 42.8636 45.5273Z" clip-rule="evenodd"></path>
  <path fill="#446548" fill-rule="evenodd" d="M45.2824 40.8577C46.0826 40.6433 46.9051 41.1182 47.1195 41.9184L47.896 44.8162C48.1104 45.6164 47.6355 46.4389 46.8353 46.6533 46.0351 46.8677 45.2126 46.3928 44.9982 45.5926L44.2217 42.6949C44.0073 41.8947 44.4822 41.0722 45.2824 40.8577zM49.1647 55.3466C49.9649 55.1322 50.7874 55.607 51.0018 56.4072L51.7783 59.305C51.9927 60.1052 51.5178 60.9277 50.7176 61.1421 49.9174 61.3565 49.0949 60.8817 48.8805 60.0815L48.104 57.1837C47.8896 56.3835 48.3645 55.561 49.1647 55.3466z" clip-rule="evenodd"></path>
  <path fill="#80A17D" d="M10 35C10 32.7909 11.7909 31 14 31H82C84.2091 31 86 32.7909 86 35V67C86 69.2091 84.2091 71 82 71H14C11.7909 71 10 69.2091 10 67V35Z"></path>
  <path fill="#446548" fill-rule="evenodd" d="M14 29H82C85.3137 29 88 31.6863 88 35V67C88 70.3137 85.3137 73 82 73H14C10.6863 73 8 70.3137 8 67V35C8 31.6863 10.6863 29 14 29ZM14 31C11.7909 31 10 32.7909 10 35V67C10 69.2091 11.7909 71 14 71H82C84.2091 71 86 69.2091 86 67V35C86 32.7909 84.2091 31 82 31H14Z" clip-rule="evenodd"></path>
  <path fill="#9DC09A" fill-rule="evenodd" d="M10 35C10 32.7909 11.7909 31 14 31H36C36.5523 31 37 31.4477 37 32C37 32.5523 36.5523 33 36 33H14C12.8954 33 12 33.8954 12 35V46C12 46.5523 11.5523 47 11 47C10.4477 47 10 46.5523 10 46V35Z" clip-rule="evenodd"></path>
  <path fill="#6B8E67" d="M22 33H14C12.8954 33 12 33.8954 12 35V42.5404C12 43.809 13.1664 44.7509 14.3596 44.3202 18.0568 42.9855 22.8026 40.0479 23.8078 34.9884 24.023 33.905 23.1046 33 22 33zM74 69L82 69C83.1046 69 84 68.1046 84 67L84 59.4596C84 58.191 82.8336 57.2491 81.6404 57.6798 77.9432 59.0145 73.1974 61.9521 72.1922 67.0116 71.977 68.095 72.8954 69 74 69zM12 59L12 67C12 68.1046 12.8954 69 14 69L21.5404 69C22.809 69 23.7509 67.8336 23.3202 66.6403 21.9855 62.9432 19.0479 58.1974 13.9884 57.1922 12.905 56.977 12 57.8954 12 59zM84 43L84 35C84 33.8954 83.1046 33 82 33L74.4596 33C73.191 33 72.2491 34.1664 72.6798 35.3596 74.0145 39.0568 76.9521 43.8026 82.0116 44.8078 83.095 45.023 84 44.1046 84 43zM61 51C61 58.1797 55.1797 64 48 64 40.8203 64 35 58.1797 35 51 35 43.8203 40.8203 38 48 38 55.1797 38 61 43.8203 61 51z"></path>
  <path fill="#446548" fill-rule="evenodd" d="M63 51C63 59.2843 56.2843 66 48 66C39.7157 66 33 59.2843 33 51C33 42.7157 39.7157 36 48 36C56.2843 36 63 42.7157 63 51ZM48 64C55.1797 64 61 58.1797 61 51C61 43.8203 55.1797 38 48 38C40.8203 38 35 43.8203 35 51C35 58.1797 40.8203 64 48 64Z" clip-rule="evenodd"></path>
  <path fill="#80B27B" fill-rule="evenodd" d="M48 40C41.9249 40 37 44.9249 37 51C37 51.5523 36.5523 52 36 52C35.4477 52 35 51.5523 35 51C35 43.8203 40.8203 38 48 38C48.5523 38 49 38.4477 49 39C49 39.5523 48.5523 40 48 40Z" clip-rule="evenodd"></path>
  <path fill="#446548" fill-rule="evenodd" d="M44.455 44.3844C45.5353 43.7092 46.8517 43.5001 48 43.5001C49.1212 43.5001 50.0751 43.6396 50.9321 43.9824C51.8012 44.33 52.4663 44.8451 53.0607 45.4395C53.6465 46.0252 53.6465 46.975 53.0607 47.5608C52.4749 48.1466 51.5251 48.1466 50.9394 47.5608C50.5337 47.1551 50.1989 46.9202 49.8179 46.7678C49.425 46.6106 48.8788 46.5001 48 46.5001C47.1484 46.5001 46.4647 46.6661 46.045 46.9284C45.7166 47.1336 45.5 47.412 45.5 48.0001C45.5 48.5882 45.7166 48.8666 46.045 49.0719C46.4647 49.3342 47.1484 49.5001 48 49.5001C49.1484 49.5001 50.4647 49.7092 51.545 50.3844C52.7166 51.1166 53.5 52.3382 53.5 54.0001C53.5 55.662 52.7166 56.8836 51.545 57.6159C50.4647 58.2911 49.1484 58.5001 48 58.5001C45.6229 58.5001 43.8627 57.6034 42.8789 56.4967C42.3285 55.8775 42.3843 54.9294 43.0035 54.379C43.6226 53.8286 44.5708 53.8844 45.1211 54.5036C45.4707 54.8968 46.3771 55.5001 48 55.5001C48.8517 55.5001 49.5353 55.3342 49.955 55.0719C50.2834 54.8666 50.5 54.5882 50.5 54.0001C50.5 53.412 50.2834 53.1336 49.955 52.9284C49.5353 52.6661 48.8517 52.5001 48 52.5001C46.8517 52.5001 45.5353 52.2911 44.455 51.6159C43.2834 50.8836 42.5 49.662 42.5 48.0001C42.5 46.3382 43.2834 45.1166 44.455 44.3844Z" clip-rule="evenodd"></path>
  <path fill="#446548" fill-rule="evenodd" d="M48 40.5C48.8284 40.5 49.5 41.1716 49.5 42V45C49.5 45.8284 48.8284 46.5 48 46.5 47.1716 46.5 46.5 45.8284 46.5 45V42C46.5 41.1716 47.1716 40.5 48 40.5zM48 55.4999C48.8284 55.4999 49.5 56.1715 49.5 56.9999V59.9999C49.5 60.8284 48.8284 61.4999 48 61.4999 47.1716 61.4999 46.5 60.8284 46.5 59.9999V56.9999C46.5 56.1715 47.1716 55.4999 48 55.4999z" clip-rule="evenodd"></path>
</svg>
