<svg xmlns="http://www.w3.org/2000/svg" enable-background="new 0 0 512 512" viewBox="0 0 512 512" id="pool-balls">
  <path fill="#fff" d="M498.52,454.793c10.83,21.67-4.92,47.16-29.15,47.16H42.63c-24.23,0-39.98-25.49-29.15-47.16
			l213.38-426.75c12-24.01,46.28-24.01,58.28,0L498.52,454.793z"></path>
  <polygon fill="#9dcafc" points="256 59.573 457.11 461.783 54.89 461.783"></polygon>
  <path fill="#fff" d="M255.98,220.813c19.41,0,35.14,15.73,35.14,35.14c0,12.95-7.01,24.27-17.44,30.36
			c-0.08,0.05-0.16,0.1-0.24,0.15c-5.14,2.94-11.11,4.63-17.46,4.63c-6.12,0-11.89-1.57-16.9-4.32c-0.02-0.01-0.04-0.02-0.06-0.04
			c-0.39-0.24-0.79-0.47-1.2-0.69c-0.02-0.01-0.04-0.02-0.06-0.04c-10.15-6.16-16.92-17.31-16.92-30.05
			C220.84,236.543,236.57,220.813,255.98,220.813z"></path>
  <path fill="#fff" d="M291.14,281.683c19.41,0,35.15,15.73,35.15,35.14c0,12.66-6.7,23.76-16.75,29.94
			c-0.06,0.04-0.12,0.08-0.18,0.11c-0.49,0.26-0.96,0.54-1.43,0.83c-0.01,0.01-0.03,0.01-0.04,0.02c-4.98,2.7-10.69,4.24-16.75,4.24
			c-6.05,0-11.74-1.53-16.71-4.22c-0.01,0-0.03-0.01-0.04-0.02c-0.54-0.34-1.08-0.66-1.64-0.96c-0.03-0.01-0.06-0.02-0.08-0.04
			c-10.01-6.19-16.67-17.27-16.67-29.9c0-12.95,7.01-24.27,17.44-30.36c0.08-0.05,0.16-0.1,0.24-0.15
			C278.82,283.373,284.79,281.683,291.14,281.683z"></path>
  <path fill="#fff" d="M239.08 286.773c10.15 6.16 16.92 17.31 16.92 30.05 0 12.63-6.66 23.71-16.67 29.9-.02.02-.05.03-.08.04-.56.3-1.1.62-1.64.96-.01.01-.03.02-.04.02-4.97 2.69-10.66 4.22-16.71 4.22-6.06 0-11.77-1.54-16.75-4.24-.01-.01-.03-.01-.04-.02-.47-.29-.94-.57-1.43-.83-.06-.03-.12-.07-.18-.11-10.05-6.18-16.75-17.28-16.75-29.94 0-19.41 15.74-35.14 35.15-35.14 6.12 0 11.89 1.57 16.9 4.32.02.02.04.03.06.04.39.24.79.47 1.2.69C239.04 286.753 239.06 286.763 239.08 286.773zM326.29 342.523c19.4 0 35.14 15.74 35.14 35.15s-15.74 35.14-35.14 35.14c-19.41 0-35.15-15.73-35.15-35.14 0-12.66 6.7-23.76 16.75-29.95.01-.01.03-.01.04-.02.48-.26.96-.54 1.43-.83.06-.03.12-.07.18-.11C314.52 344.063 320.22 342.523 326.29 342.523z"></path>
  <path fill="#fff" d="M274.43 347.743c10.03 6.19 16.71 17.28 16.71 29.93 0 19.41-15.73 35.14-35.14 35.14s-35.14-15.73-35.14-35.14c0-12.65 6.68-23.74 16.71-29.93.01 0 .03-.01.04-.02.56-.3 1.1-.62 1.64-.96.03-.01.06-.02.08-.04 4.96-2.68 10.64-4.2 16.67-4.2 6.03 0 11.71 1.52 16.67 4.2.02.02.05.03.08.04.54.34 1.08.66 1.64.96C274.4 347.733 274.42 347.743 274.43 347.743zM204.11 347.723c10.05 6.19 16.75 17.29 16.75 29.95 0 19.41-15.74 35.14-35.15 35.14-19.4 0-35.14-15.73-35.14-35.14s15.74-35.15 35.14-35.15c6.07 0 11.77 1.54 16.75 4.24.06.04.12.08.18.11.47.29.95.57 1.43.83C204.08 347.713 204.1 347.713 204.11 347.723z"></path>
  <path fill="#4269a7" d="M507.462,450.324L294.087,23.575c-15.682-31.363-60.488-31.373-76.175,0L4.538,450.324
				c-14.141,28.283,6.397,61.627,38.087,61.627h426.75C501.065,511.951,521.604,478.607,507.462,450.324z M469.375,491.951H42.625
				c-16.783,0-27.708-17.663-20.199-32.683l213.375-426.75c8.345-16.692,32.068-16.661,40.397,0l213.375,426.75
				C497.074,474.268,486.181,491.951,469.375,491.951z"></path>
  <path fill="#4269a7" d="M264.944,55.096c-3.681-7.363-14.212-7.354-17.889,0l-201.11,402.22
				c-3.324,6.648,1.526,14.472,8.944,14.472h402.219c7.433,0,12.262-7.836,8.944-14.472L264.944,55.096z M71.07,451.788L256,81.929
				l184.929,369.859H71.07z"></path>
  <path fill="#4269a7" d="M213.882,272.22c-28.167,4.388-45.571,33.88-35.132,60.846
				c-21.597,3.359-38.178,22.08-38.178,44.604c0,24.892,20.251,45.143,45.143,45.143c14.188,0,26.861-6.585,35.143-16.853
				c18.094,22.433,52.132,22.508,70.286,0c8.282,10.268,20.955,16.853,35.143,16.853c24.892,0,45.143-20.251,45.143-45.143
				c0-22.523-16.582-41.245-38.178-44.604c10.46-27.021-7.022-56.493-35.171-60.853c11.454-29.549-10.511-61.405-42.1-61.405
				C224.352,210.808,202.437,242.709,213.882,272.22z M220.857,291.679c13.864,0,25.143,11.279,25.143,25.143
				s-11.279,25.143-25.143,25.143s-25.143-11.279-25.143-25.143S206.993,291.679,220.857,291.679z M185.714,402.813
				c-13.864,0-25.143-11.279-25.143-25.143s11.279-25.143,25.143-25.143s25.143,11.279,25.143,25.143
				S199.578,402.813,185.714,402.813z M256,402.813c-13.864,0-25.143-11.279-25.143-25.143s11.279-25.143,25.143-25.143
				s25.143,11.279,25.143,25.143S269.864,402.813,256,402.813z M351.429,377.67c0,13.864-11.279,25.143-25.143,25.143
				s-25.143-11.279-25.143-25.143s11.279-25.143,25.143-25.143S351.429,363.806,351.429,377.67z M316.286,316.822
				c0,13.864-11.279,25.143-25.143,25.143S266,330.686,266,316.822s11.279-25.143,25.143-25.143S316.286,302.959,316.286,316.822z
				 M281.122,255.951c0,13.864-11.279,25.143-25.143,25.143s-25.143-11.279-25.143-25.143s11.279-25.143,25.143-25.143
				S281.122,242.088,281.122,255.951z"></path>
</svg>
