<svg xmlns="http://www.w3.org/2000/svg" enable-background="new 0 0 24 24" viewBox="0 0 24 24" id="visa">
  <path fill="#191E6E" d="M13.967 13.838c-.766 0-1.186-.106-1.831-.37l-.239-.109-.271 1.575c.466.192 1.306.356 2.175.37 2.041 0 3.375-.947 3.391-2.404.016-.801-.511-1.409-1.621-1.909-.675-.326-1.095-.544-1.095-.874 0-.292.359-.603 1.11-.603.644-.01 1.096.127 1.455.269l.18.079.271-1.522-.047.01c-.388-.144-.99-.296-1.74-.296-1.92 0-3.275.954-3.285 2.321-.012 1.005.964 1.571 1.701 1.908.757.345 1.01.562 1.008.872C15.124 13.624 14.524 13.838 13.967 13.838L13.967 13.838zM22.428 8.182h-1.5c-.467 0-.815.125-1.02.583l-2.886 6.439h2.041l.408-1.054 2.49.002c.061.246.24 1.052.24 1.052H24L22.428 8.182 22.428 8.182zM20.029 12.71l.774-1.964c-.01.019.16-.406.259-.671l.133.607.449 2.028H20.029L20.029 12.71z"></path>
  <polygon fill="#191E6E" points="8.444 15.149 10.388 15.149 11.603 8.123 9.66 8.123 9.66 8.121 8.444 15.149"></polygon>
  <path fill="#191E6E" d="M4.923,12.971l-0.202-0.976v0.003L4.039,8.772C3.922,8.325,3.58,8.193,3.156,8.177H0.025L0,8.325C0.705,8.49,1.34,8.729,1.908,9.022c0.101,0.063,0.145,0.132,0.18,0.234l1.68,5.939h2.055l3.06-7.013H6.824L4.923,12.971L4.923,12.971z"></path>
  <polygon fill="#DEDEDE" points="21.487 12 20.31 12 20.029 12.71 21.645 12.71 21.487 12"></polygon>
  <path fill="#161A60" d="M16.932 12h-3.361c.186.109.375.202.55.282.757.345 1.01.562 1.008.872-.005.47-.605.683-1.162.683-.766 0-1.186-.106-1.831-.37l-.239-.109-.271 1.575c.466.192 1.306.356 2.175.37 2.041 0 3.375-.947 3.391-2.404C17.199 12.568 17.113 12.271 16.932 12L16.932 12zM23.283 12h-1.795l.157.71h-1.615L20.31 12h-1.852l-1.436 3.204h2.041l.408-1.054 2.49.002c.061.246.24 1.052.24 1.052H24L23.283 12 23.283 12z"></path>
  <polygon fill="#DEDEDE" points="5.309 12 4.722 12 4.923 12.971 5.309 12"></polygon>
  <polygon fill="#161A60" points="10.933 12 8.989 12 8.444 15.149 10.388 15.149 10.933 12"></polygon>
  <polygon fill="#161A60" points="7.217 12 5.309 12 4.923 12.971 4.722 12 2.864 12 3.768 15.195 5.822 15.195 7.217 12"></polygon>
</svg>
