<svg xmlns="http://www.w3.org/2000/svg" width="256" height="256" fill="none" viewBox="0 0 256 256" id="visa">
  <rect width="224" height="224" x="16" y="16" fill="url(#paint0_linear_531_13665)" rx="70"></rect>
  <path fill="#1434CB" d="M130.748 118.585C130.657 125.783 137.163 129.799 142.063 132.187C147.098 134.637 148.789 136.208 148.769 138.4C148.732 141.753 144.753 143.233 141.03 143.29C134.534 143.391 130.757 141.537 127.755 140.134L125.415 151.083C128.427 152.472 134.006 153.682 139.79 153.735C153.368 153.735 162.251 147.033 162.299 136.641C162.353 123.452 144.057 122.722 144.182 116.827C144.225 115.04 145.931 113.132 149.668 112.647C151.518 112.402 156.625 112.215 162.415 114.881L164.688 104.287C161.574 103.153 157.572 102.068 152.589 102.068C139.809 102.068 130.821 108.862 130.748 118.585ZM186.524 102.98C184.044 102.98 181.955 104.427 181.022 106.646L161.627 152.957H175.195L177.895 145.495H194.475L196.041 152.957H208L197.564 102.98H186.524ZM188.422 116.481L192.337 135.248H181.614L188.422 116.481ZM114.298 102.981L103.602 152.957H116.532L127.222 102.98H114.298M95.1706 102.98L81.7131 136.997L76.2694 108.073C75.6306 104.845 73.1081 102.98 70.3069 102.98H48.3081L48 104.432C52.5162 105.412 57.6475 106.992 60.7563 108.683C62.6587 109.717 63.2013 110.62 63.8263 113.075L74.1369 152.957H87.8L108.747 102.98L95.1706 102.98Z"></path>
  <defs>
    <linearGradient id="paint0_linear_531_13665" x1="16" x2="208" y1="16" y2="240" gradientUnits="userSpaceOnUse">
      <stop stop-color="#fff"></stop>
      <stop offset="1" stop-color="#ACCCFF"></stop>
    </linearGradient>
  </defs>
</svg>
